
<svg version="1.1" id="Layer_1" xmlns="http://www.w3.org/2000/svg" xmlns:xlink="http://www.w3.org/1999/xlink" x="0px" y="0px" viewBox="0 0 60.7 40" style="enable-background:new 0 0 60.7 40;" xml:space="preserve">
 <style type="text/css">
    * {
      margin: 0;
      padding: 0;
    }

    .element {
      height: 50px;
      width: 50px;
      margin: 10px;
    }

    .container {
      display: flex;
      justify-content: center;
      flex-direction: column;
      align-items: center;
      height: 100vh;
      background: linear-gradient(to bottom, #57c1eb 0%,#246fa8 100%);
    }

     .elements {
       display: flex;
       justify-content: center;
       flex-wrap: wrap;
       
    }

    .white {fill:#FFFFFF}
    .gray {fill:#E0E0E0}
    .yellow {fill:#FFEB3B}
  </style>
  <g id="Cloud_5">
    <g id="White_cloud_5">
      <path id="XMLID_49_" class="white" d="M47.2,44.4H7.9c-4.3,0-7.9-3.5-7.9-7.9l0,0c0-4.3,3.5-7.9,7.9-7.9h39.4c4.3,0,7.9,3.5,7.9,7.9 v0C55.1,40.9,51.6,44.4,47.2,44.4z"></path>
      <circle id="XMLID_48_" class="white" cx="17.4" cy="27.2" r="9.3"></circle>
      <circle id="XMLID_47_" class="white" cx="34.5" cy="25.5" r="15.6"></circle>
      <animateTransform attributeName="transform" attributeType="XML" dur="6s" keyTimes="0;0.5;1" repeatCount="indefinite" type="translate" values="0;5;0" calcMode="linear">
      </animateTransform>
    </g>
    <path id="Moon_5" class="yellow" d="M33.6,17.9c-0.2-7.7,4.9-14.4,12-16.4c-2.3-1-4.9-1.5-7.6-1.5c-9.8,0.3-17.5,8.5-17.2,18.3 c0.3,9.8,8.5,17.5,18.3,17.2c2.7-0.1,5.2-0.8,7.5-1.9C39.3,32,33.8,25.6,33.6,17.9z"></path>
    <g id="Gray_cloud_5">
      <path id="XMLID_45_" class="gray" d="M54.7,26.8H33.4c-3.3,0-6-2.7-6-6v0c0-3.3,2.7-6,6-6h21.3c3.3,0,6,2.7,6,6v0 C60.7,24.1,58,26.8,54.7,26.8z"></path>
      <circle id="XMLID_43_" class="gray" cx="45.7" cy="15.1" r="10.7"></circle>
      <animateTransform attributeName="transform" attributeType="XML" dur="6s" keyTimes="0;0.5;1" repeatCount="indefinite" type="translate" values="0;-3;0" calcMode="linear">
      </animateTransform>
    </g>
  </g>
</svg>