<svg version="1.1" id="Layer_1" xmlns="http://www.w3.org/2000/svg" xmlns:xlink="http://www.w3.org/1999/xlink" x="0px" y="0px" viewBox="0 0 60.7 40" style="enable-background:new 0 0 60.7 40;" xml:space="preserve">
  <style type="text/css">
    * {
      margin: 0;
      padding: 0;
    }

    .element {
      height: 50px;
      width: 50px;
      margin: 10px;
    }

    .container {
      display: flex;
      justify-content: center;
      flex-direction: column;
      align-items: center;
      height: 100vh;
      background: linear-gradient(to bottom, #57c1eb 0%,#246fa8 100%);
    }

     .elements {
       display: flex;
       justify-content: center;
       flex-wrap: wrap;
       
    }

    .white {fill:#808080}
    .gray {fill:#D0D0D0}
    .yellow {fill:#FFEB3B}
  </style>
  <g id="Cloud_1">
    <g id="White_cloud_1">
      <path id="XMLID_2_" class="white" d="M47.2,40H7.9C3.5,40,0,36.5,0,32.1l0,0c0-4.3,3.5-7.9,7.9-7.9h39.4c4.3,0,7.9,3.5,7.9,7.9v0 C55.1,36.5,51.6,40,47.2,40z"/>
      <circle id="XMLID_3_" class="white" cx="17.4" cy="22.8" r="9.3"/>
      <circle id="XMLID_4_" class="white" cx="34.5" cy="21.1" r="15.6"/>
      <animateTransform attributeName="transform"
        attributeType="XML"
        dur="6s"
        keyTimes="0;0.5;1"
        repeatCount="indefinite"
        type="translate"
        values="0;5;0"
        calcMode="linear">
      </animateTransform>
    </g>
    <g id="Gray_cloud_1">
      <path id="XMLID_6_" class="gray" d="M54.7,22.3H33.4c-3.3,0-6-2.7-6-6v0c0-3.3,2.7-6,6-6h21.3c3.3,0,6,2.7,6,6v0 C60.7,19.6,58,22.3,54.7,22.3z"/>
      <circle id="XMLID_7_" class="gray" cx="45.7" cy="10.7" r="10.7"/>
      <animateTransform attributeName="transform"
        attributeType="XML"
        dur="6s"
        keyTimes="0;0.5;1"
        repeatCount="indefinite"
        type="translate"
        values="0;-3;0"
        calcMode="linear">
      </animateTransform>
    </g>
  </g>
</svg>