<?xml version="1.0" encoding="utf-8"?>
<!-- Svg Vector Icons : http://www.onlinewebfonts.com/icon -->
<!DOCTYPE svg PUBLIC "-//W3C//DTD SVG 1.1//EN" "http://www.w3.org/Graphics/SVG/1.1/DTD/svg11.dtd">
<svg version="1.1" xmlns="http://www.w3.org/2000/svg" xmlns:xlink="http://www.w3.org/1999/xlink" x="0px" y="0px" viewBox="0 0 1000 1000" enable-background="new 0 0 1000 1000" xml:space="preserve">
	<metadata> Svg Vector Icons : http://www.onlinewebfonts.com/icon </metadata>
	<g>
		<g>
			<path fill="red" d="M710,936.7c-93.9,0-187.9-35.8-259.5-107.2c-88.6-88.5-232.6-88.5-321,0c-27.4,27.4-71.6,27.4-99,0c-27.4-27.4-27.4-71.6,0-99c143-143,375.8-143,519,0c88.5,88.5,232.5,88.4,321,0c27.4-27.4,71.6-27.4,99,0s27.4,71.6,0,99C898,901,804,936.7,710,936.7L710,936.7z"/>
			<path  fill="red" d="M710,656.7c-93.9,0-187.9-35.8-259.5-107.2c-88.6-88.5-232.6-88.5-321,0c-27.4,27.4-71.6,27.4-99,0c-27.4-27.4-27.4-71.6,0-99c143-143,375.8-143,519,0c88.5,88.5,232.5,88.4,321,0c27.4-27.4,71.6-27.4,99,0s27.4,71.6,0,99C898,621,804,656.7,710,656.7L710,656.7z"/>
			<path  fill="red" d="M710,376.7c-93.9,0-187.9-35.8-259.5-107.2c-88.6-88.5-232.6-88.5-321,0c-27.4,27.4-71.6,27.4-99,0s-27.4-71.6,0-99c143-142.9,375.8-143.1,519,0c88.5,88.5,232.5,88.4,321,0c27.4-27.4,71.6-27.4,99,0s27.4,71.6,0,99C898,341,804,376.7,710,376.7L710,376.7z"/>
		</g>
	</g>
</svg>